<?xml version="1.0" encoding="utf-8"?>
<!-- Generator: Adobe Illustrator 19.0.0, SVG Export Plug-In . SVG Version: 6.00 Build 0)  -->
<svg version="1.1" id="Layer_1" xmlns="http://www.w3.org/2000/svg" xmlns:xlink="http://www.w3.org/1999/xlink" x="0px" y="0px"
	 viewBox="0 0 96 96" style="enable-background:new 0 0 96 96;" xml:space="preserve">
<g id="XMLID_1_">
	<path id="XMLID_3_" d="M72.1,42.7H36.6l13.8-13.2c2-2.1,2-5.4,0-7.5c-2-2.1-5.2-2.1-7.2,0L20.3,44.3c-1,1-1.5,2.3-1.5,3.7V48
		c0,1.4,0.5,2.8,1.5,3.7l22.9,22.2c2,2.1,5.2,2.1,7.2,0c2-2.1,2-5.4,0-7.5L36.6,53.3h35.5c2.8,0,5.1-2.4,5.1-5.3
		C77.2,45,74.9,42.7,72.1,42.7L72.1,42.7z"/>
</g>
</svg>
